<svg data-v-0dd9719b="" version="1.0" xmlns="http://www.w3.org/2000/svg" xmlns:xlink="http://www.w3.org/1999/xlink" width="100%" height="100%" viewBox="0 0 340.000000 250.000000" preserveAspectRatio="xMidYMid meet" color-interpolation-filters="sRGB" style="margin: auto;"> <rect data-v-0dd9719b="" x="0" y="0" width="100%" height="100%" fill="#ffffff" fill-opacity="1" class="background"></rect> <rect data-v-0dd9719b="" x="0" y="0" width="100%" height="100%" fill="url(#watermark)" fill-opacity="1" class="watermarklayer"></rect> <g data-v-0dd9719b="" fill="#333333" class="icon-text-wrapper icon-svg-group iconsvg" transform="translate(86.94000244140625,69.64199829101562)"><g fill="#f58020" class="iconsvg-imagesvg icon_container" transform="translate(53.05999755859375,0)"><rect fill="#333333" fill-opacity="0" stroke-width="2" x="0" y="0" width="60" height="60" class="image-rect"></rect> <svg viewBox="0 0 60 60" x="0" y="0" width="60" height="60" class="image-svg-svg bn" style="overflow: visible;"><g hollow-target="iconBnFill" mask="url(#5cbd7b62-f290-4b3e-9622-1cd7a5aa885f)"><g><svg fill="#000000" xmlns="http://www.w3.org/2000/svg" xmlns:xlink="http://www.w3.org/1999/xlink" xmlns:sketch="http://www.bohemiancoding.com/sketch/ns" viewBox="0 0 60 60" version="1.1" x="0" y="0" style="overflow: visible;" width="60" height="60" filtersec="colorsf4466313384" filter="url(#VhTSrvICWROa5TMlNjt0K)"><g transform="scale(1, 1) skewX(0)"><title>96 - Rounded (Solid)</title><desc>Created with Sketch.</desc><g stroke="none" stroke-width="1" fill="none" fill-rule="evenodd" sketch:type="MSPage"><g sketch:type="MSLayerGroup" fill="#000000"><path d="M49.001,0 L10.999,0 C4.934,0 0,4.934 0,10.999 L0,49.001 C0,55.066 4.934,60 10.999,60 L49.001,60 C55.065,60 60,55.066 60,49.001 L60,10.999 C60,4.934 55.065,0 49.001,0" sketch:type="MSShapeGroup"></path></g></g></g><defs><filter id="VhTSrvICWROa5TMlNjt0K"><feColorMatrix type="matrix" values="0 0 0 0 0.95703125  0 0 0 0 0.5  0 0 0 0 0.125  0 0 0 1 0"></feColorMatrix></filter></defs></svg></g> <g filter="url(#colors7582719980)"><svg xmlns="http://www.w3.org/2000/svg" xmlns:xlink="http://www.w3.org/1999/xlink" viewBox="0 0 43.2 48.24000000000001" width="40" height="40" x="10" y="10" class="image-svg-letter"><path transform="translate(-2.232 48.24000000000001)" d="M2.23-39.74L6.91-39.74L6.91-8.50L2.23-8.50L2.23 0L27.65 0C38.38 0 45.43-3.96 45.43-12.74C45.43-18.50 42.48-22.54 37.30-24.55C40.75-27.07 42.70-30.53 42.70-35.35C42.70-44.35 35.71-48.24 25.06-48.24L2.23-48.24ZM17.21-8.42L17.21-20.52L27.65-20.52C32.83-20.52 35.78-18.86 35.78-14.62C35.78-10.22 32.83-8.42 27.65-8.42ZM17.21-39.74L25.06-39.74C30.17-39.74 33.12-38.23 33.12-33.55C33.12-29.02 30.24-27.14 25.06-27.14L17.21-27.14Z"></path></svg></g></g><mask id="5cbd7b62-f290-4b3e-9622-1cd7a5aa885f"><g fill="white"><svg xmlns="http://www.w3.org/2000/svg" xmlns:xlink="http://www.w3.org/1999/xlink" xmlns:sketch="http://www.bohemiancoding.com/sketch/ns" viewBox="0 0 60 60" version="1.1" x="0" y="0" style="overflow: visible;" width="60" height="60" filtersec="colorsf4466313384"><g transform="scale(1, 1) skewX(0)"><title>96 - Rounded (Solid)</title><desc>Created with Sketch.</desc><g stroke-width="1" fill-rule="evenodd" sketch:type="MSPage"><g sketch:type="MSLayerGroup"><path d="M49.001,0 L10.999,0 C4.934,0 0,4.934 0,10.999 L0,49.001 C0,55.066 4.934,60 10.999,60 L49.001,60 C55.065,60 60,55.066 60,49.001 L60,10.999 C60,4.934 55.065,0 49.001,0" sketch:type="MSShapeGroup"></path></g></g></g><defs></defs></svg></g> <g fill="black"><svg xmlns="http://www.w3.org/2000/svg" xmlns:xlink="http://www.w3.org/1999/xlink" viewBox="0 0 43.2 48.24000000000001" width="40" height="40" x="10" y="10" class="image-svg-letter"><path transform="translate(-2.232 48.24000000000001)" d="M2.23-39.74L6.91-39.74L6.91-8.50L2.23-8.50L2.23 0L27.65 0C38.38 0 45.43-3.96 45.43-12.74C45.43-18.50 42.48-22.54 37.30-24.55C40.75-27.07 42.70-30.53 42.70-35.35C42.70-44.35 35.71-48.24 25.06-48.24L2.23-48.24ZM17.21-8.42L17.21-20.52L27.65-20.52C32.83-20.52 35.78-18.86 35.78-14.62C35.78-10.22 32.83-8.42 27.65-8.42ZM17.21-39.74L25.06-39.74C30.17-39.74 33.12-38.23 33.12-33.55C33.12-29.02 30.24-27.14 25.06-27.14L17.21-27.14Z"></path></svg></g></mask></svg> <defs><filter id="colors7582719980"><feColorMatrix type="matrix" values="0 0 0 0 0.95703125  0 0 0 0 0.5  0 0 0 0 0.125  0 0 0 1 0" class="icon-fecolormatrix"></feColorMatrix></filter> <filter id="colorsf4466313384"><feColorMatrix type="matrix" values="0 0 0 0 0.99609375  0 0 0 0 0.99609375  0 0 0 0 0.99609375  0 0 0 1 0" class="icon-fecolormatrix"></feColorMatrix></filter> <filter id="colorsb3938120401"><feColorMatrix type="matrix" values="0 0 0 0 0  0 0 0 0 0  0 0 0 0 0  0 0 0 1 0" class="icon-fecolormatrix"></feColorMatrix></filter></defs></g> <g transform="translate(0,67)"><g data-gra="path-name" fill-rule="" class="tp-name iconsvg-namesvg" transform="translate(0,0)"><g transform="scale(1)"><g><path d="M1.24-22.08L3.84-22.08 3.84-4.72 1.24-4.72 1.24 0 15.36 0C21.32 0 25.24-2.2 25.24-7.08 25.24-10.28 23.6-12.52 20.72-13.64 22.64-15.04 23.72-16.96 23.72-19.64 23.72-24.64 19.84-26.8 13.92-26.8L1.24-26.8ZM9.56-4.68L9.56-11.4 15.36-11.4C18.24-11.4 19.88-10.48 19.88-8.12 19.88-5.68 18.24-4.68 15.36-4.68ZM9.56-22.08L13.92-22.08C16.76-22.08 18.4-21.24 18.4-18.64 18.4-16.12 16.8-15.08 13.92-15.08L9.56-15.08ZM42.92-10.4C42.92-6.72 40.84-4.56 38.08-4.56 35.24-4.56 33.28-6.68 33.28-10.4 33.28-14.08 35.32-16.2 38.08-16.2 40.84-16.2 42.92-14.08 42.92-10.4ZM48.48-10.36C48.48-17.08 43.88-20.88 38.08-20.88 32.28-20.88 27.68-17.08 27.68-10.36 27.68-3.48 32.28 0.32 38.08 0.32 43.88 0.32 48.48-3.48 48.48-10.36ZM49.6-20.52L49.6-16.48 52.2-16.48 52.2-4.08 49.6-4.08 49.6 0 60.28 0 60.28-4.08 57.64-4.08 57.64-13.2C58.4-14.96 59.6-16.52 61.52-16.52 64.08-16.52 65.32-14.72 65.32-10.88L65.32 0 73.36 0 73.36-4.08 70.76-4.08 70.76-12.24C70.76-17.88 67.96-20.92 63.16-20.92 60.76-20.92 58.96-19.88 57.64-18.44L57.64-20.52ZM74.48-10.36C74.48-3.48 78.24 0.32 83.4 0.32 85.84 0.32 87.96-0.56 89.52-2.2L89.52 0 97.56 0 97.56-4.08 94.96-4.08 94.96-28.24 86.88-28.24 86.88-24.2 89.52-24.2 89.52-18.32C88.04-20.04 85.92-20.88 83.4-20.88 78.24-20.88 74.48-17.08 74.48-10.36ZM80.08-10.24C80.08-13.92 82.16-16.04 85.04-16.04 87.24-16.04 88.92-14.76 89.52-12.56L89.52-7.8C88.92-5.6 87.16-4.36 85.04-4.36 82.16-4.36 80.08-6.56 80.08-10.24ZM109.92 0L109.92-4.08 107.28-4.08 107.28-7.88C107.76-13 110.4-15.64 114.4-15.64 114.76-15.64 115.12-15.6 115.56-15.56L115.56-20.84C115.24-20.88 114.92-20.88 114.64-20.88 111.28-20.88 108.88-19.16 107.28-16.64L107.28-20.56 99.24-20.56 99.24-16.52 101.84-16.52 101.84-4.08 99.24-4.08 99.24 0ZM116.4-10.36C116.4-3.48 120.72 0.32 126.92 0.32 130.64 0.32 133.24-0.84 135.36-2.64L134.08-6.92C132.36-5.52 130.6-4.4 128.08-4.4 124.88-4.4 122.92-5.96 122.24-8.52L136.32-8.52C136.36-9.12 136.4-10.32 136.4-10.84 136.4-16.72 133.36-20.88 126.8-20.88 120.84-20.88 116.4-17.08 116.4-10.36ZM122.08-11.76C122.52-14.68 124.4-16.48 126.96-16.48 130.28-16.48 131.84-14.16 131.84-11.76ZM139.28-16.04L143.12-16.04 143.84-26.8 138.6-26.8ZM157.76-27.08C152.96-27.08 146.8-25.6 146.8-19.64 146.8-10.68 161.56-12.04 161.56-7.6 161.56-4.88 159.2-3.92 155.56-3.92 154.4-3.92 153.24-4.04 152.12-4.24L151.72-8.92 146.84-8.92 146.84-1.08C149.68-0.36 153.36 0.24 155.92 0.24 163.76 0.28 167.36-2.72 167.36-7.56 167.36-16.72 152.64-15.04 152.64-20.2 152.64-22.4 154.76-23.08 157.72-23.08 159-23.08 160.28-22.96 161.52-22.76L161.92-18 166.56-18 166.56-25.84C164.2-26.48 160.92-27.08 157.76-27.08Z" transform="translate(-1.2400000095367432, 28.239999771118164)"></path></g> <!----> <!----> <!----> <!----> <!----> <!----> <!----></g></g> <g data-gra="path-slogan" fill-rule="" class="tp-slogan iconsvg-slogansvg" fill="#333333" transform="translate(24.90499496459961,35.560001373291016)"><!----> <!----> <g transform="scale(1, 1)"><g transform="scale(1)"><path d="M2.71 0L2.71-7.03L0.34-7.03L0.34-7.87L6.10-7.87L6.10-7.03L3.72-7.03L3.72 0L2.71 0ZM7.51 0L7.51-7.87L8.51-7.87L8.51-4.57L12.17-4.57L12.17-7.87L13.18-7.87L13.18 0L12.17 0L12.17-3.71L8.51-3.71L8.51 0L7.51 0ZM15.34 0L15.34-7.87L19.87-7.87L19.87-7.03L16.33-7.03L16.33-4.56L19.32-4.56L19.32-3.71L16.33-3.71L16.33-0.85L19.99-0.85L19.99 0L15.34 0ZM24.08 0L24.08-7.87L25.08-7.87L25.08-0.85L28.52-0.85L28.52 0L24.08 0ZM29.53-3.25L29.53-7.87L30.53-7.87L30.53-3.23Q30.53-2.52 30.67-2.04Q30.82-1.56 31.06-1.27Q31.31-0.98 31.64-0.86Q31.98-0.73 32.36-0.73L32.36-0.73Q32.76-0.73 33.10-0.86Q33.43-0.98 33.68-1.27Q33.94-1.56 34.08-2.04Q34.22-2.52 34.22-3.23L34.22-3.23L34.22-7.87L35.18-7.87L35.18-3.25Q35.18-2.30 34.97-1.66Q34.75-1.01 34.37-0.61Q34.00-0.20 33.48-0.03Q32.96 0.14 32.36 0.14L32.36 0.14Q31.76 0.14 31.24-0.03Q30.72-0.20 30.34-0.61Q29.96-1.01 29.75-1.66Q29.53-2.30 29.53-3.25L29.53-3.25ZM36.29 0L38.58-4.07L36.44-7.87L37.55-7.87L38.62-5.86Q38.77-5.58 38.91-5.32Q39.05-5.06 39.23-4.72L39.23-4.72L39.28-4.72Q39.44-5.06 39.57-5.32Q39.70-5.58 39.84-5.86L39.84-5.86L40.88-7.87L41.94-7.87L39.79-4.02L42.08 0L40.98 0L39.83-2.12Q39.67-2.41 39.51-2.72Q39.35-3.02 39.16-3.38L39.16-3.38L39.11-3.38Q38.94-3.02 38.78-2.72Q38.63-2.41 38.48-2.12L38.48-2.12L37.34 0L36.29 0ZM43.19-3.25L43.19-7.87L44.18-7.87L44.18-3.23Q44.18-2.52 44.33-2.04Q44.47-1.56 44.72-1.27Q44.96-0.98 45.30-0.86Q45.64-0.73 46.02-0.73L46.02-0.73Q46.42-0.73 46.75-0.86Q47.09-0.98 47.34-1.27Q47.59-1.56 47.74-2.04Q47.88-2.52 47.88-3.23L47.88-3.23L47.88-7.87L48.84-7.87L48.84-3.25Q48.84-2.30 48.62-1.66Q48.41-1.01 48.03-0.61Q47.65-0.20 47.14-0.03Q46.62 0.14 46.02 0.14L46.02 0.14Q45.42 0.14 44.90-0.03Q44.38-0.20 44.00-0.61Q43.62-1.01 43.40-1.66Q43.19-2.30 43.19-3.25L43.19-3.25ZM51.96-7.07L51.96-4.14L53.28-4.14Q54.20-4.14 54.70-4.52Q55.19-4.90 55.19-5.66L55.19-5.66Q55.19-6.44 54.70-6.76Q54.20-7.07 53.28-7.07L53.28-7.07L51.96-7.07ZM56.41 0L55.28 0L53.39-3.32L51.96-3.32L51.96 0L50.96 0L50.96-7.87L53.42-7.87Q54.02-7.87 54.53-7.76Q55.04-7.64 55.41-7.38Q55.78-7.12 55.98-6.70Q56.18-6.28 56.18-5.66L56.18-5.66Q56.18-4.74 55.70-4.19Q55.22-3.64 54.42-3.43L54.42-3.43L56.41 0ZM59.04 0L59.04-3.05L56.68-7.87L57.74-7.87L58.76-5.65Q58.96-5.22 59.14-4.80Q59.32-4.38 59.52-3.94L59.52-3.94L59.57-3.94Q59.77-4.38 59.98-4.80Q60.18-5.22 60.36-5.65L60.36-5.65L61.37-7.87L62.41-7.87L60.05-3.05L60.05 0L59.04 0ZM68.81 0.14L68.81 0.14Q68.06 0.14 67.45-0.14Q66.83-0.43 66.38-0.97Q65.94-1.50 65.69-2.26Q65.45-3.02 65.45-3.97L65.45-3.97Q65.45-4.92 65.69-5.67Q65.94-6.42 66.38-6.94Q66.83-7.46 67.45-7.74Q68.06-8.02 68.81-8.02L68.81-8.02Q69.55-8.02 70.17-7.73Q70.79-7.45 71.24-6.93Q71.69-6.41 71.93-5.66Q72.18-4.91 72.18-3.97L72.18-3.97Q72.18-3.02 71.93-2.26Q71.69-1.50 71.24-0.97Q70.79-0.43 70.17-0.14Q69.55 0.14 68.81 0.14ZM68.81-0.73L68.81-0.73Q69.34-0.73 69.76-0.96Q70.19-1.19 70.49-1.61Q70.80-2.04 70.97-2.63Q71.14-3.23 71.14-3.97L71.14-3.97Q71.14-4.70 70.97-5.29Q70.80-5.88 70.49-6.29Q70.19-6.70 69.76-6.92Q69.34-7.14 68.81-7.14L68.81-7.14Q68.28-7.14 67.85-6.92Q67.43-6.70 67.12-6.29Q66.82-5.88 66.65-5.29Q66.48-4.70 66.48-3.97L66.48-3.97Q66.48-3.23 66.65-2.63Q66.82-2.04 67.12-1.61Q67.43-1.19 67.85-0.96Q68.28-0.73 68.81-0.73ZM73.87 0L73.87-7.87L78.41-7.87L78.41-7.03L74.87-7.03L74.87-4.37L77.87-4.37L77.87-3.53L74.87-3.53L74.87 0L73.87 0ZM81.77-3.94L81.77-3.94Q81.77-4.88 82.03-5.64Q82.30-6.40 82.76-6.92Q83.23-7.45 83.87-7.73Q84.52-8.02 85.27-8.02L85.27-8.02Q85.99-8.02 86.53-7.72Q87.07-7.43 87.42-7.04L87.42-7.04L86.86-6.41Q86.54-6.74 86.17-6.94Q85.79-7.14 85.28-7.14L85.28-7.14Q84.72-7.14 84.26-6.92Q83.81-6.70 83.48-6.28Q83.16-5.87 82.98-5.28Q82.80-4.69 82.80-3.96L82.80-3.96Q82.80-3.22 82.97-2.62Q83.15-2.03 83.46-1.61Q83.77-1.19 84.22-0.96Q84.67-0.73 85.24-0.73L85.24-0.73Q85.81-0.73 86.24-0.96Q86.66-1.19 87.05-1.61L87.05-1.61L87.61-1.00Q87.14-0.46 86.56-0.16Q85.97 0.14 85.21 0.14L85.21 0.14Q84.47 0.14 83.84-0.13Q83.21-0.41 82.75-0.93Q82.28-1.45 82.03-2.21Q81.77-2.98 81.77-3.94ZM89.08 0L89.08-7.87L90.07-7.87L90.07-0.85L93.52-0.85L93.52 0L89.08 0ZM94.91 0L94.91-7.87L99.44-7.87L99.44-7.03L95.90-7.03L95.90-4.56L98.89-4.56L98.89-3.71L95.90-3.71L95.90-0.85L99.56-0.85L99.56 0L94.91 0ZM102.22-3.20L104.58-3.20L104.21-4.40Q103.99-5.06 103.80-5.72Q103.61-6.37 103.42-7.06L103.42-7.06L103.37-7.06Q103.19-6.37 103.00-5.72Q102.80-5.06 102.59-4.40L102.59-4.40L102.22-3.20ZM105.58 0L104.83-2.40L101.96-2.40L101.21 0L100.19 0L102.85-7.87L103.98-7.87L106.64 0L105.58 0ZM107.76 0L107.76-7.87L108.79-7.87L111.64-2.93L112.49-1.30L112.54-1.30Q112.50-1.90 112.46-2.54Q112.42-3.18 112.42-3.80L112.42-3.80L112.42-7.87L113.36-7.87L113.36 0L112.33 0L109.48-4.96L108.62-6.58L108.58-6.58Q108.62-5.98 108.67-5.36Q108.71-4.74 108.71-4.12L108.71-4.12L108.71 0L107.76 0ZM115.22-0.60L115.22-0.60Q115.22-0.95 115.43-1.16Q115.64-1.37 115.94-1.37L115.94-1.37Q116.23-1.37 116.44-1.16Q116.65-0.95 116.65-0.60L116.65-0.60Q116.65-0.28 116.44-0.07Q116.23 0.14 115.94 0.14L115.94 0.14Q115.64 0.14 115.43-0.07Q115.22-0.28 115.22-0.60Z" transform="translate(-0.336, 8.016)"></path></g></g></g></g></g><defs v-gra="od"></defs></svg>